<svg id="Capa_1" enable-background="new 0 0 497 497" height="512" viewBox="0 0 497 497" width="512" xmlns="http://www.w3.org/2000/svg"><g id="_x3C_Group_x3E__71_"><path d="m149 455h-79c-38.66 0-67-28.34-67-67v-279c0-24.446 9.531-45.965 28.52-58.484 11.041-7.279 24.266-11.516 38.48-11.516h79c38.66 0 70 31.34 70 70v279c0 14.214-4.237 27.439-11.516 38.48-12.519 18.989-34.038 28.52-58.484 28.52z" fill="#cf9875"/><path d="m427 455h-79c-38.66 0-67-28.34-67-67v-279c0-24.446 9.531-45.965 28.52-58.484 11.041-7.279 24.266-11.516 38.48-11.516h79c38.66 0 70 31.34 70 70v279c0 14.214-4.237 27.439-11.516 38.48-12.519 18.989-34.038 28.52-58.484 28.52z" fill="#cf9875"/><path d="m169 438h-94c-30.376 0-55-24.624-55-55v-294c0-14.214 4.249-27.431 11.528-38.472-18.989 12.519-31.528 34.026-31.528 58.472v279c0 38.66 31.34 70 70 70h79c24.446 0 45.953-12.539 58.472-31.528-11.041 7.279-24.258 11.528-38.472 11.528z" fill="#c27e4e"/><path d="m447 438h-94c-30.376 0-55-24.624-55-55v-294c0-14.214 4.249-27.431 11.528-38.472-18.989 12.519-31.528 34.026-31.528 58.472v279c0 38.66 31.34 70 70 70h79c24.446 0 45.953-12.539 58.472-31.528-11.041 7.279-24.258 11.528-38.472 11.528z" fill="#c27e4e"/><g><path d="m119.449 120.691h-22v-35.553c0-8.284 10-12 10-12 2.645 0 7.13-2.315 9.287-1.114 4.6 2.562 7.713 7.475 7.713 13.114v11.652z" fill="#ba3434"/><path d="m180.42 352.205-10 3.333c-6.475 2.158-13.162-2.661-13.162-9.487v-75.127c0-34.945-11.806-68.071-33.139-94.648-4.487-5.59 2.147-19.586-14.959-24.437-14.17 3.319-10.058 18.761-14.595 24.311-21.848 26.727-33.946 60.218-33.946 95.663v61.445l-2 12.792c0 6.826-7.856 8.245-14.332 6.087l-4.831-1.933c-4.083-1.361-6.838-5.183-6.838-9.487v-76.904c0-27.387 6.34-54.877 18.335-79.498 11.995-24.62 24.767-40.873 46.333-57.753l11.872 4.851 7.021-4.085c1.906 13.713 24.789 11.645 33.832 23.488 7.456 9.765 13.932 20.276 19.252 31.316 11.771 24.429 17.993 51.675 17.993 78.791v81.793c.002 4.306-2.753 8.128-6.836 9.489z" fill="#ba3434"/><g><path d="m57.457 332.205c-4.083-1.361-6.838-5.183-6.838-9.487v-80.904c0-27.387 6.34-54.877 18.335-79.498 6.727-13.808 15.263-26.77 25.266-38.471-18.841 16.125-34.411 36.192-45.266 58.471-11.995 24.621-18.335 52.111-18.335 79.498v80.904c0 4.304 2.754 8.125 6.838 9.487l10 3.333c6.475 2.158 13.162-2.661 13.162-9.487v-12.792z" fill="#ae3030"/></g><path d="m109.501 94.087c-.018 0-.035.001-.053.001v-8.95c0-5.549 3.021-10.382 7.5-12.977-2.208-1.279-4.765-2.023-7.5-2.023-8.284 0-15 6.716-15 15v11.693 23.86h15 15v-23.901c-4.65-1.743-9.685-2.703-14.947-2.703z" fill="#ae3030"/><path d="m118.871 118.979-9.269-7.415-9.347 7.316c-11.545 9.036-21.979 19.531-31.036 31.101 4.071 12.075 13.438 21.718 25.355 26.178 4.537-5.55 9.484-10.815 14.84-15.739 5.309 4.966 10.207 10.274 14.694 15.864 11.942-4.359 21.364-13.913 25.542-25.914-8.963-11.661-19.314-22.257-30.779-31.391z" fill="#ae3030"/><path d="m136.476 136.471c0-14.857-12.077-26.902-26.975-26.902-2.154 0-4.249.252-6.257.727-11.881 2.814-17.719 13.465-17.719 26.174 0 14.857 9.077 23.902 23.975 23.902 12.77 0 23.467-5.849 26.263-17.733.467-1.98.713-4.046.713-6.168z" fill="#f0c99d"/><path d="m129.501 143.372c-14.898 0-26.975-12.044-26.975-26.901 0-2.123.254-4.186.72-6.167-11.88 2.814-20.72 13.458-20.72 26.167 0 14.857 12.077 26.901 26.975 26.901 12.769 0 23.459-8.851 26.255-20.735-2.008.476-4.101.735-6.255.735z" fill="#e9a761"/></g><g><path d="m392.053 118.968-16.605 1.723v-35.553c0-8.284 7.988-11.872 7.988-11.872 2.362-1.34 9.017-2.477 11.136-1.331 4.69 2.536 7.876 7.498 7.876 13.204v12.191z" fill="#ba3434"/><path d="m458.42 352.205-10 3.333c-6.475 2.158-13.162-2.661-13.162-9.487v-75.127c0-34.945-11.806-68.071-33.139-94.648-4.487-5.59 2.147-19.586-14.959-24.437-14.17 3.319-10.058 18.761-14.595 24.311-21.848 26.727-33.946 60.218-33.946 95.663v61.445 12.792c0 6.826-7.58 8.415-14.055 6.257l-7.107-2.103c-4.083-1.361-6.838-5.183-6.838-9.487v-76.904c0-27.387 6.34-54.877 18.335-79.498 11.995-24.62 24.767-40.873 46.333-57.753l11.872 4.851 7.021-4.085c1.906 13.713 24.789 11.645 33.832 23.488 7.456 9.765 13.932 20.276 19.252 31.316 11.771 24.429 17.993 51.675 17.993 78.791v81.793c.001 4.306-2.754 8.128-6.837 9.489z" fill="#ba3434"/><g><path d="m335.457 332.205c-4.083-1.361-6.838-5.183-6.838-9.487v-80.904c0-27.387 6.34-54.877 18.335-79.498 6.727-13.808 15.263-26.77 25.266-38.471-18.841 16.125-34.411 36.192-45.266 58.471-11.995 24.621-18.335 52.111-18.335 79.498v80.904c0 4.304 2.754 8.125 6.838 9.487l10 3.333c6.475 2.158 13.162-2.661 13.162-9.487v-12.792z" fill="#ae3030"/></g><path d="m387.501 94.087c-.018 0-.035.001-.053.001v-8.95c0-5.549 3.021-10.382 7.5-12.977-2.208-1.279-4.765-2.023-7.5-2.023-8.284 0-15 6.716-15 15v11.693 23.86h15 15v-23.901c-4.65-1.743-9.685-2.703-14.947-2.703z" fill="#ae3030"/><path d="m396.871 118.979-9.269-7.415-9.347 7.316c-11.545 9.036-21.979 19.531-31.036 31.101 4.071 12.075 13.438 21.718 25.355 26.178 4.537-5.55 9.484-10.815 14.84-15.739 5.309 4.966 10.207 10.274 14.694 15.864 11.942-4.359 21.364-13.913 25.542-25.914-8.963-11.661-19.314-22.257-30.779-31.391z" fill="#ae3030"/><path d="m414.476 136.471c0-14.857-12.077-26.902-26.975-26.902-2.154 0-4.249.252-6.257.727-11.881 2.814-17.719 13.465-17.719 26.174 0 14.857 9.077 23.902 23.975 23.902 12.77 0 23.467-5.849 26.263-17.733.467-1.98.713-4.046.713-6.168z" fill="#f0c99d"/><path d="m407.501 143.372c-14.898 0-26.975-12.044-26.975-26.901 0-2.123.254-4.186.72-6.167-11.88 2.814-20.72 13.458-20.72 26.167 0 14.857 12.077 26.901 26.975 26.901 12.769 0 23.459-8.851 26.255-20.735-2.008.476-4.101.735-6.255.735z" fill="#e9a761"/></g></g></svg>