<svg enable-background="new 0 0 100 100" viewBox="0 0 100 100" xmlns="http://www.w3.org/2000/svg"><g id="Layer_1"/><g id="Layer_2"/><g id="Layer_3"/><g id="Layer_4"/><g id="Layer_5"/><g id="Layer_6"/><g id="Layer_7"/><g id="Layer_8"/><g id="Layer_9"/><g id="Layer_10"/><g id="Layer_11"/><g id="Layer_12"/><g id="Layer_13"/><g id="Layer_14"/><g id="Layer_15"/><g id="Layer_16"/><g id="Layer_17"/><g id="Layer_18"/><g id="Layer_19"/><g id="Layer_20"/><g id="Layer_21"/><g id="Layer_22"/><g id="Layer_23"/><g id="Layer_24"/><g id="Layer_25"/><g id="Layer_26"/><g id="Layer_27"/><g id="Layer_28"/><g id="Layer_29"/><g id="Layer_30"/><g id="Layer_31"/><g id="Layer_32"/><g id="Layer_35"><g id="Layer_34"/><g id="Layer_33"/><g><g clip-rule="evenodd" fill-rule="evenodd"><path d="m22.1 49.5c-2.1 2.2-2.1 5.7 0 7.8l1.9 1.9 7.8-7.8-1.9-1.9c-2.1-2.2-5.6-2.2-7.8 0z" fill="#868686"/><path d="m46.8 82c2.1 2.1 5.7 2.1 7.8 0 2.2-2.2 2.2-5.7 0-7.8l-4.8-4.8-7.8 7.8z" fill="#868686"/><path d="m49.3 36.3c0-.1 0-.1 0 0zm-7.3 40.9 7.8-7.8 4.1-4.1c3.9-3.9 5.2-6.3 9.1-5.7 2.5.4 5.1-.3 7.1-2.2l8.4-8.4 7.7-7.7c1.5-1.5 1.5-4 0-5.5s-3.9-1.5-5.5 0l9.1-9.1c1.8-1.8 1.8-4.8 0-6.7-1.8-1.8-4.8-1.8-6.7 0l2.5-2.5c1.8-1.8 1.8-4.8 0-6.7-1.8-1.8-4.8-1.8-6.6.1l-4 4c1.8-1.8 1.8-4.8 0-6.7-1.8-1.8-4.8-1.8-6.7 0l-16.9 16.9c-1.3-.8-2.9-.6-4 .5l-5.6 5.6c-2.3 2.3-3.2 5.5-2.9 8.6.5 4.9-1.2 6.1-5.6 10.2l-1.5 1.5-7.8 7.6z" fill="#ffddce"/><path d="m8.8 94.6 27.1.4h5.8l13-13c-2.2 2.1-5.7 2.1-7.8 0l-4.9-4.8-18-18-1.9-1.9c-2.1-2.1-2.1-5.7 0-7.8l-13.1 13z" fill="#f5f5f5"/><path d="m62 27.9c-.7.7-1.9.7-2.6 0s-.7-1.9 0-2.6l16.5-15.7c.8 1.7.5 3.9-.9 5.3l3.1-3.1z" fill="#f0d2c5"/><path d="m83.2 20-14.6 14.5c-.7.7-1.9.7-2.6 0s-.7-1.9 0-2.6l20.2-20.2c1.1 1.8.9 4.2-.7 5.8z" fill="#f0d2c5"/><path d="m73 43.5c-.7.7-1.9.7-2.6 0s-.7-1.9 0-2.6l20.1-20.1c1.1 1.8.9 4.2-.7 5.8l-9.1 9.1z" fill="#f0d2c5"/><path d="m62.8 59.5 23.6-23.5c1.3 1.5 1.3 3.8-.2 5.3l-7.7 7.7-8.4 8.4c-1.9 1.9-4.5 2.6-7.1 2.2-.1 0-.1-.1-.2-.1z" fill="#f0d2c5"/></g><path d="m29.7 8.7c-1 .1-1.9-.7-1.9-1.7-.1-1 .7-1.9 1.7-1.9.3 0 .6 0 1.1-.1h1.1c1 0 1.8.8 1.8 1.8s-.8 1.8-1.8 1.8c-.3 0-.6 0-.9 0-.4 0-.7.1-1.1.1zm8.2.7c-1-.3-1.5-1.2-1.3-2.2.3-1 1.3-1.5 2.2-1.3 1.5.4 3.1 1 4.5 1.7 1.5.7 2.9 1.5 4.2 2.4.8.6 1 1.7.4 2.5s-1.7 1-2.5.4c-1.2-.8-2.4-1.5-3.6-2.1-1.2-.5-2.6-1-3.9-1.4z" fill="#f5f5f5"/><path d="m18.1 20.5c-1 .2-1.9-.5-2.1-1.5s.5-1.9 1.5-2.1c3.3-.6 6.7-.6 10 0s6.4 1.8 9.3 3.5c.9.5 1.1 1.6.6 2.5s-1.6 1.1-2.5.6c-2.5-1.5-5.3-2.5-8.1-3.1-2.9-.4-5.9-.4-8.7.1z" fill="#f5f5f5"/><path d="m12.5 32.9c-1 .2-1.9-.5-2.1-1.4s.5-1.9 1.5-2.1c.8-.1 1.6-.3 2.5-.3.8-.1 1.7-.1 2.5-.1 1 0 1.8.8 1.8 1.8s-.8 1.8-1.8 1.8c-.7 0-1.4 0-2.2.1-.8 0-1.5.1-2.2.2zm11.5.7c-1-.3-1.5-1.3-1.2-2.3s1.3-1.5 2.3-1.2c1.1.3 2.1.7 3.2 1.2 1 .5 2 1 3 1.6.9.5 1.1 1.6.6 2.5s-1.6 1.1-2.5.6c-.8-.5-1.7-1-2.6-1.4-1-.3-1.9-.7-2.8-1z" fill="#f5f5f5"/><path clip-rule="evenodd" d="m38.9 39.7c.1 1.1.1 2 0 2.8.6 5.4 3.1 10.5 8.6 6.1 3.9-3.9 4.7-9.3 1.8-12.2l.5.5c3.6 3.4 7.2 5.1 9.9 4.7 1.2-.2 2.1-.6 2.6-1.2 1.3-1.3.9-3.5-1.1-5.4l-9.8-9.7c-1.3-.8-2.9-.6-4 .5l-5.6 5.6c-1.3 1.3-2.1 2.7-2.5 4.3-.2.5-.3 1.2-.4 1.9-.1.5-.1 1.3 0 2.1z" fill="#f0d2c5" fill-rule="evenodd"/></g></g></svg>