<svg id="Capa_1" enable-background="new 0 0 512 512" height="512" viewBox="0 0 512 512" width="512" xmlns="http://www.w3.org/2000/svg"><g><path d="m190.449 361.278h-38.378c-4.676 0-8.646 3.427-9.328 8.053l-14.662 99.426c-.296 2.003 1.257 3.801 3.282 3.801h33.911l33.748-68.316c.173-.766-8.573-42.964-8.573-42.964z" fill="#f1f1f4"/><path d="m130.559 451.955-2.478 16.802c-.296 2.003 1.257 3.801 3.282 3.801h33.911l12.209-20.604h-46.924z" fill="#dfdde2"/><path d="m179.275 71.353-48.35 19.731c-12.611 5.146-22.849 14.81-28.715 27.102l-101.886 213.515c-.771 1.615-.121 3.551 1.468 4.374l68.786 35.632c1.676.868 3.737.165 4.533-1.546l66.033-141.914 4.037 98.351c.145 3.524 3.044 6.307 6.571 6.307h47.21l60.845-120.778-75.494-143.94c-1.473 1.331-3.175 2.406-5.038 3.166z" fill="#f1f1f4"/><path d="m144.594 312.301.587 14.297c.145 3.524 3.044 6.307 6.571 6.307l58.62 12.894-1.03-33.497h-64.748z" fill="#dfdde2"/><path d="m511.676 331.701-101.887-213.514c-5.866-12.292-16.104-21.956-28.715-27.102l-48.35-19.731c-1.863-.76-3.565-1.835-5.038-3.166l-74.898 157.87c-13.296 33.504-24.701 106.848-24.701 106.848h42.099 90.062c3.527 0 6.426-2.782 6.571-6.307l4.037-98.351 66.033 141.914c.796 1.711 2.858 2.414 4.533 1.546l68.786-35.632c1.589-.824 2.239-2.76 1.468-4.375z" fill="#f1f1f4"/><path d="m383.919 468.758-14.662-99.426c-.682-4.626-4.652-8.053-9.328-8.053l-154.586-12.343-10.943 123.623h186.238c2.024 0 3.576-1.798 3.281-3.801z" fill="#f1f1f4"/><g fill="#dfdde2"><path d="m329.993 199.25-2.716 66.159c-1.076 26.203-22.631 46.892-48.856 46.892h-54.847l-13.203 33.497 149.876-12.894c3.527 0 6.426-2.782 6.571-6.306l4.107-100.054 3.393-18.616v-64.04l-7.919 3.272c-21.252 8.782-35.462 29.114-36.406 52.09z"/><path d="m511.676 331.701-101.887-213.514c-5.866-12.292-16.104-21.956-28.715-27.102l-24.687-10.075c5.034 4.665 9.189 10.274 12.195 16.573l83.59 175.172c10.971 22.991 1.725 50.54-20.895 62.258l-8.656 4.484 14.268 30.664c.796 1.711 2.858 2.414 4.533 1.546l68.786-35.632c1.589-.823 2.239-2.759 1.468-4.374z"/><path d="m383.919 468.758-14.662-99.426c-.682-4.626-4.652-8.053-9.328-8.053h-30.029l1.444 9.794 12.715 12.715c1.051 1.051 1.051 2.754 0 3.804l-8.958 8.958 3.448 23.38c2.489 16.876-10.591 32.026-27.649 32.026h-121.841l5.341 20.604h186.238c2.024-.001 3.576-1.799 3.281-3.802z"/></g><path d="m210.678 380.385-23.07 23.07c-1.051 1.051-2.754 1.051-3.804 0l-2.468-2.468c-.174.767-.347 1.534-.519 2.301l-15.542 69.271h29.125l15.543-69.271c2.116-9.431 4.351-18.833 6.704-28.204-2.078 1.635-4.071 3.403-5.969 5.301z" fill="#c6c1c8"/><path d="m169.897 451.955-4.623 20.604h29.126l4.623-20.604z" fill="#afaab4"/><path d="m303.22 61.785h-94.44l47.22 118.983z" fill="#f1f1f4"/><path d="m129.644 136.486c-4.264.175-7.578 3.773-7.403 8.037l4.691 114.268 14.212-30.543-3.463-84.358c-.175-4.265-3.761-7.585-8.037-7.404z" fill="#dfdde2"/><path d="m389.76 144.523c.174-4.264-3.14-7.862-7.403-8.037-4.27-.169-7.861 3.14-8.037 7.403l-3.463 84.358 14.213 30.545z" fill="#dfdde2"/><g><path d="m61.63 345.799c-1.197 0-2.411-.279-3.547-.867l-28.717-14.876c-3.789-1.963-5.27-6.626-3.307-10.414 1.962-3.789 6.624-5.271 10.414-3.307l28.717 14.876c3.789 1.963 5.27 6.626 3.307 10.414-1.374 2.653-4.072 4.174-6.867 4.174z" fill="#dfdde2"/></g><g><path d="m450.369 345.798c-2.795 0-5.492-1.521-6.866-4.174-1.963-3.789-.483-8.452 3.307-10.414l28.717-14.876c3.789-1.962 8.451-.482 10.413 3.307 1.963 3.789.483 8.452-3.307 10.414l-28.717 14.876c-1.135.589-2.35.867-3.547.867z" fill="#c6c1c8"/></g><path d="m308.985 41.922c-2.643-1.596-5.711-2.481-8.905-2.481h-88.16c-3.194 0-6.262.885-8.905 2.481v25.2h105.969v-25.2z" fill="#afaab4"/><path d="m203.015 41.922c-2.425 1.465-4.493 3.529-5.97 6.06l-9.403 16.108c-.899 1.539-2.024 2.919-3.329 4.098l57.124 143.939 12.542-11.111 2.021-25.584z" fill="#dfdde2"/><path d="m327.687 68.187c-1.305-1.179-2.43-2.558-3.329-4.098l-9.403-16.108c-1.477-2.531-3.545-4.595-5.97-6.06l-74.928 188.802c-13.296 33.504-25.006 67.602-35.095 102.18h29.126c10.089-34.578 21.798-68.676 35.095-102.18z" fill="#c6c1c8"/><path d="m205.183 312.301c-2.138 6.848-4.212 13.716-6.221 20.604h29.126c2.009-6.887 4.083-13.755 6.221-20.604z" fill="#afaab4"/><path d="m361.75 332.905h-211.5c-1.714 0-3.103 1.389-3.103 3.103v22.167c0 1.714 1.389 3.103 3.103 3.103h211.5c1.714 0 3.103-1.389 3.103-3.103v-22.167c0-1.714-1.389-3.103-3.103-3.103z" fill="#756e78"/><path d="m320.99 360.717c-14.006-14.006-31.652-23.047-50.804-26.242l-5.486 15.006 5.486 13.372c11.69 2.824 22.415 8.811 31.136 17.532l23.07 23.07c1.051 1.051 2.754 1.051 3.804 0l15.864-15.864c1.051-1.051 1.051-2.754 0-3.804z" fill="#665e66"/><path d="m191.01 360.717c14.006-14.006 31.652-23.047 50.804-26.242l5.445 12.616-5.445 15.762c-11.69 2.824-22.415 8.811-31.136 17.532l-23.07 23.07c-1.051 1.051-2.754 1.051-3.804 0l-15.864-15.864c-1.051-1.051-1.051-2.754 0-3.804z" fill="#665e66"/><path d="m266.39 368.269h-20.78c-2.097 0-3.797-1.7-3.797-3.797v-34.762c0-2.097 1.7-3.797 3.797-3.797h20.779c2.097 0 3.797 1.7 3.797 3.797v34.762c.001 2.097-1.699 3.797-3.796 3.797z" fill="#756e78"/></g></svg>