<svg height="512pt" viewBox="-28 0 511 512" width="512pt" xmlns="http://www.w3.org/2000/svg"><path d="m252.292969 103.871094h30v119.328125h-30zm0 0" fill="#463f3f"/><path d="m192.292969 283.269531h30v91.730469h-30zm0 0" fill="#5b5555"/><path d="m252.292969 283.269531h30v91.730469h-30zm0 0" fill="#463f3f"/><path d="m192.292969 103.871094h30v119.328125h-30zm0 0" fill="#5b5555"/><path d="m39.65625 4.117188-14.414062-4.117188-24.742188 86.527344 14.429688 4.132812c33.648437 9.617188 67.867187 14.40625 102.363281 19.585938v-91.332032c-26.078125-4.417968-52.027344-7.480468-77.636719-14.796874zm0 0" fill="#766e6e"/><path d="m398.691406 105.601562c-53.101562 10.800782-107.402344 13.796876-161.398437 13.796876-40.203125 0-80.402344-3.296876-120-9.296876v-91.203124c43.800781 7.203124 83.699219 10.800781 120 10.800781 123.898437 1.5 199.5-27.597657 212.097656-29.699219l4.203125 14.398438c11.398438 40.503906-13.800781 82.800781-54.902344 91.203124zm0 0" fill="#f2f2f2"/><path d="m398.691406 105.601562c-53.101562 10.800782-107.402344 13.796876-161.398437 13.796876v-89.699219c123.898437 1.5 199.5-27.597657 212.097656-29.699219l4.203125 14.398438c11.398438 40.503906-13.800781 82.800781-54.902344 91.203124zm0 0" fill="#e7e7f2"/><path d="m370.492188 284.398438c-43.5 9.601562-88.199219 14.699218-133.199219 14.699218-30.300781 0-60.300781-2.699218-90-6.898437v-91.199219c32.699219 5.699219 62.996093 8.097656 90 8.097656 105.601562 1.800782 168.898437-29.097656 180-31.5l4.796875 14.101563c13.199218 40.199219-10.496094 83.699219-51.597656 92.699219zm0 0" fill="#f2f2f2"/><path d="m422.089844 191.699219c13.199218 40.199219-10.496094 83.699219-51.597656 92.699219-43.5 9.601562-88.199219 14.699218-133.199219 14.699218v-90c105.601562 1.800782 168.898437-29.097656 180-31.5zm0 0" fill="#e7e7f2"/><path d="m71.53125 182.3125-14.226562-4.746094-28.476563 85.386719 14.226563 4.730469c33.941406 11.320312 68.820312 19.316406 104.238281 24.511718v-91.074218c-25.648438-4.429688-51.015625-10.558594-75.761719-18.808594zm0 0" fill="#766e6e"/><path d="m102.292969 0h30v135h-30zm0 0" fill="#fdbf00"/><path d="m132.292969 180h30v135h-30zm0 0" fill="#fdbf00"/><path d="m327.292969 420h-15v-60h-150v60h-15c-41.402344 0-75 35.601562-75 77v15h330v-15c0-41.398438-33.601563-77-75-77zm0 0" fill="#766e6e"/><path d="m402.292969 497v15h-165v-152h75v60h15c41.398437 0 75 35.601562 75 77zm0 0" fill="#5b5555"/><path d="m222.292969 420h30v30h-30zm0 0" fill="#fdbf00"/><path d="m237.292969 420h15v30h-15zm0 0" fill="#ff9100"/></svg>