<svg id="Capa_1" enable-background="new 0 0 512 512" height="512" viewBox="0 0 512 512" width="512" xmlns="http://www.w3.org/2000/svg"><g><path d="m270.893 190.393 1-1.179v-32.28h-32.911c-1.078 1.814-1.708 3.925-1.708 6.188v15.127c0 6.707 5.437 12.144 12.144 12.144z" fill="#ffe5c2"/><path d="m259.67 120.276-1-1.758h-21.475c-6.707 0-12.144 5.437-12.144 12.144v15.127c0 6.707 5.437 12.144 12.144 12.144h21.475l1-2.057z" fill="#fed2a4"/><g><g><path d="m366.44 163.762c1.166-1.166 1.498-2.836.867-4.359-.631-1.522-2.047-2.469-3.695-2.469h-92.719v33.459h68.916z" fill="#593636"/></g><g><g><g><path d="m159.993 234.165-3.378 1.964-20.895 20.895 32.685 32.685c.712-1.438 1.647-2.772 2.815-3.94l16.812-16.813c1.168-1.168 2.502-2.103 3.94-2.815z" fill="#593636"/><g><path d="m89.557 258.791 45.072-45.072c1.358-1.358 3.56-1.358 4.918 0l20.445 20.445-41.792 41.794c-4.527 4.527-11.867 4.527-16.395 0l-12.248-12.248c-1.358-1.359-1.358-3.561 0-4.919z" fill="#537983"/></g><g><path d="m110.535 263.709c-1.358-1.358-1.358-3.56 0-4.918l37.042-37.042-8.03-8.03c-1.358-1.358-3.56-1.358-4.918 0l-45.072 45.072c-1.358 1.358-1.358 3.56 0 4.918l12.248 12.248c4.527 4.527 11.867 4.527 16.395 0l2.292-2.292z" fill="#3e5959"/></g></g><g><path d="m284.738 291.923c-2.354-2.354-4.196-5.029-5.529-7.885l-26.815 26.815-42.604-42.603c-6.204-6.204-16.262-6.204-22.466 0l-16.812 16.812c-6.204 6.204-6.204 16.262 0 22.466l54.578 54.579c15.079 15.079 39.528 15.079 54.607 0l37.612-37.612z" fill="#855151"/></g><g><g><path d="m256.761 362.107-54.579-54.579c-6.204-6.204-6.204-16.262 0-22.466l12.209-12.209-4.603-4.603c-6.204-6.204-16.262-6.204-22.466 0l-16.812 16.812c-6.204 6.204-6.204 16.262 0 22.466l54.578 54.579c11.665 11.665 28.935 14.298 43.139 7.915-4.155-1.868-8.052-4.501-11.466-7.915z" fill="#704444"/></g></g></g><g><path d="m459.382 405.136-32.685-32.685c-.711 1.438-1.647 2.772-2.815 3.94l-16.812 16.812c-1.168 1.168-2.502 2.103-3.94 2.815l31.978 31.978 2.993-1.579z" fill="#593636"/><g><path d="m505.544 403.37-45.072 45.072c-1.358 1.358-3.56 1.358-4.918 0l-20.445-20.445 41.793-41.793c4.527-4.527 11.867-4.527 16.395 0l12.248 12.248c1.357 1.358 1.357 3.56-.001 4.918z" fill="#537983"/></g><g><path d="m458.708 427.996 38.19-38.191-3.603-3.603c-4.527-4.527-11.867-4.527-16.395 0l-41.793 41.793 20.445 20.445c1.358 1.358 3.56 1.358 4.918 0l9.341-9.341z" fill="#3e5959"/></g><path d="m373.299 303.343-2.247 2.247c-2.687 2.687-6.26 4.167-10.06 4.167s-7.373-1.48-10.06-4.167l-60.326-60.326-6.577 6.577c-11.264 11.264-11.264 29.526 0 40.789l101.28 101.28c6.204 6.204 16.262 6.204 22.466 0l16.812-16.812c6.204-6.204 6.204-16.262 0-22.466z" fill="#855151"/><path d="m304.741 281.903c-7.976-7.976-10.296-19.458-6.977-29.483l-7.156-7.156-6.577 6.577c-11.264 11.264-11.264 29.526 0 40.789l101.28 101.28c6.204 6.204 16.262 6.204 22.466 0l6.381-6.381c-2.981-.59-5.826-2.037-8.136-4.347z" fill="#704444"/></g></g><path d="m421.511 125.633h-57.553c-.674 0-1.278-.32-1.656-.879s-.451-1.238-.201-1.864l1.749-4.372h-105.18v39.415h104.942c2.673 0 4.011 3.231 2.121 5.121l-75.839 75.839c-1.953 1.953-1.953 5.118 0 7.071l60.332 60.332c5.946 5.946 15.587 5.946 21.533 0l73.273-73.272c19.2-19.2 22.703-48.145 10.525-70.911-16.563-5.741-29.434-19.428-34.046-36.48z" fill="#855151"/><g><path d="m366.558 160.398 5.782-5.782c5.109-5.109 1.49-13.844-5.734-13.844h-87.606c-2.761 0-5-2.239-5-5v-17.254h-15.33v39.415h104.942c1.588 0 2.698 1.143 2.946 2.465z" fill="#704444"/></g><g><path d="m289.894 245.964 60.332 60.332c5.946 5.946 15.587 5.946 21.533 0l16.322-16.322-74.634-74.634-23.553 23.553c-1.952 1.953-1.952 5.119 0 7.071z" fill="#593636"/></g><g><g><path d="m472.971 166.048c-30.001 0-54.322-24.321-54.322-54.322v-16.793c0-21.555 17.474-39.028 39.029-39.028h15.293c21.555 0 39.029 17.474 39.029 39.028v32.086c0 21.556-17.474 39.029-39.029 39.029z" fill="#855151"/></g></g><g><path d="m419.65 111.727v-16.794c0-3.451.471-6.793 1.336-9.974l-26.305-21.739c-.946-.781-2.272-.909-3.348-.321l-17.631 9.624c-1.863 1.017-2.11 3.594-.474 4.946l45.956 37.979c.2.165.417.289.642.394-.106-1.36-.176-2.729-.176-4.115z" fill="#855151"/><path d="m419.65 111.727v-9.744h-48.232c-1.227 0-2.33.747-2.785 1.886l-7.46 18.65c-.788 1.97.663 4.114 2.785 4.114h57.828c-1.381-4.734-2.136-9.732-2.136-14.906z" fill="#593636"/></g><g><path d="m450.587 111.727v-16.794c0-18.698 13.151-34.316 30.706-38.13-2.683-.583-5.465-.898-8.322-.898h-15.293c-21.555 0-39.029 17.474-39.029 39.028v16.793c0 30.001 24.321 54.322 54.322 54.322 5.168 0 10.098-1.014 14.612-2.839-21.502-7.233-36.996-27.542-36.996-51.482z" fill="#704444"/></g><g><path d="m464.225 110.965c3.231 10.653 13.205 29.308 43.708 33.402 2.598-5.227 4.067-11.114 4.067-17.347v-23.572h-42.238c-3.908-.001-6.671 3.777-5.537 7.517z" fill="#ffe5c2"/></g><g><path d="m485.357 110.965c-1.134-3.74 1.628-7.517 5.537-7.517h-21.132c-3.908 0-6.671 3.777-5.537 7.517 3.231 10.653 13.205 29.308 43.708 33.402.849-1.707 1.563-3.49 2.159-5.327-16.021-7.459-22.299-20.041-24.735-28.075z" fill="#fed2a4"/></g></g><g><path d="m180.832 123.803h-99.047c-4.142 0-7.5-3.358-7.5-7.5s3.358-7.5 7.5-7.5h99.047c4.142 0 7.5 3.358 7.5 7.5s-3.358 7.5-7.5 7.5z" fill="#a8d3d8"/></g><g><path d="m188.71 158.694h-144.067c-4.142 0-7.5-3.358-7.5-7.5s3.358-7.5 7.5-7.5h144.067c4.142 0 7.5 3.358 7.5 7.5s-3.357 7.5-7.5 7.5z" fill="#cbe5e8"/></g><g><path d="m197.715 193.586h-190.215c-4.142 0-7.5-3.358-7.5-7.5s3.358-7.5 7.5-7.5h190.215c4.142 0 7.5 3.358 7.5 7.5s-3.358 7.5-7.5 7.5z" fill="#a8d3d8"/></g><g><path d="m347.179 421.204h-144.068c-4.142 0-7.5-3.358-7.5-7.5s3.358-7.5 7.5-7.5h144.068c4.142 0 7.5 3.358 7.5 7.5s-3.358 7.5-7.5 7.5z" fill="#cbe5e8"/></g><g><path d="m396.787 456.095h-230.818c-4.142 0-7.5-3.358-7.5-7.5s3.358-7.5 7.5-7.5h230.818c4.142 0 7.5 3.358 7.5 7.5s-3.358 7.5-7.5 7.5z" fill="#a8d3d8"/></g></g></svg>