<?xml version="1.0" encoding="iso-8859-1"?>
<!-- Generator: Adobe Illustrator 19.0.0, SVG Export Plug-In . SVG Version: 6.00 Build 0)  -->
<svg version="1.1" id="Capa_1" xmlns="http://www.w3.org/2000/svg" xmlns:xlink="http://www.w3.org/1999/xlink" x="0px" y="0px"
	 viewBox="0 0 512 512" style="enable-background:new 0 0 512 512;" xml:space="preserve">
<path style="fill:#3C3A41;" d="M505.051,424.317c-51.891-32.995-92.183-83.385-111.378-142.172
	c-2.1-5.999-7.798-10.199-14.398-10.199h-246.55c-6.6,0-12.299,4.199-14.398,10.199C99.132,340.933,58.839,391.322,6.949,424.317
	c-8.998,5.699-9.298,19.195-0.3,25.194L97.631,509.5c4.5,3,10.199,3.3,14.997,0.901c40.193-20.095,68.387-59.988,68.387-114.577
	h149.97c0,54.289,27.894,94.181,68.388,114.577c4.798,2.401,10.497,2.1,14.997-0.901l90.982-59.988
	C514.35,443.512,514.05,430.016,505.051,424.317z"/>
<path style="fill:#2B292C;" d="M505.351,449.51l-90.982,59.988c-4.5,3-10.199,3.3-14.997,0.901
	c-40.493-20.396-68.388-60.288-68.388-114.577H256V271.946h123.276c6.6,0,12.299,4.199,14.398,10.199
	c19.195,58.787,59.487,109.177,111.378,142.172C514.05,430.016,514.35,443.512,505.351,449.51z"/>
<path style="fill:#57555C;" d="M345.982,322.936H166.017c-8.399,0-14.997,6.598-14.997,14.997v98.98
	c0,41.392,33.593,74.985,74.985,74.985h59.988c41.392,0,74.985-33.593,74.985-74.985v-98.98
	C360.979,329.534,354.381,322.936,345.982,322.936z"/>
<path style="fill:#E5E5E5;" d="M405.97,180.964c0,107.38-67.187,195.961-149.97,195.961s-149.97-88.582-149.97-195.961
	c0-98.68,60.288-165.967,149.97-165.967S405.97,82.285,405.97,180.964z"/>
<path style="fill:#3C3A41;" d="M360.979,337.933v98.98c0,41.392-33.593,74.985-74.985,74.985H256V322.936h89.982
	C354.381,322.936,360.979,329.534,360.979,337.933z"/>
<path style="fill:#D9D9D9;" d="M405.97,180.964c0,107.38-67.187,195.961-149.97,195.961V14.997
	C345.682,14.997,405.97,82.285,405.97,180.964z"/>
<path style="fill:#787780;" d="M403.87,95.08C378.077,36.294,325.286,0,256,0S133.924,36.294,108.129,95.08
	c-4.199,4.5-17.097,43.592-17.097,85.884c0,126.276,81.883,210.958,164.967,210.958c72.585,0,128.975-64.786,140.372-100.479
	c16.497-34.193,24.595-73.887,24.595-110.479C420.967,138.674,408.071,99.58,403.87,95.08z M241.003,360.73
	c-33.893-5.1-63.887-26.695-85.184-58.789h85.184L241.003,360.73L241.003,360.73z M241.003,271.946h-101.68
	c-8.097-18.296-13.497-39.393-16.196-60.988h117.877v60.988H241.003z M241.003,180.964H121.026c0-21.895,3.299-42.993,8.998-60.988
	h110.978V180.964z M241.003,89.982h-97.181c20.696-33.893,54.289-54.589,97.181-58.488V89.982z M270.997,31.494
	c42.892,3.899,76.485,24.595,97.181,58.488h-97.181V31.494z M270.997,360.73V301.94h85.184
	C334.884,334.034,304.89,355.629,270.997,360.73z M372.678,271.946h-101.68v-60.988h117.877
	C386.175,232.553,380.774,253.65,372.678,271.946z M270.997,180.964v-60.988h110.978c5.699,17.995,8.998,39.093,8.998,60.988
	H270.997z"/>
<path style="fill:#57555C;" d="M403.87,95.08C378.077,36.294,325.286,0,256,0v391.923c72.585,0,128.975-64.786,140.372-100.479
	c16.497-34.193,24.595-73.887,24.595-110.479C420.967,138.674,408.071,99.58,403.87,95.08z M270.997,31.494
	c42.892,3.899,76.485,24.595,97.181,58.488h-97.181V31.494z M270.997,360.73V301.94h85.184
	C334.884,334.034,304.89,355.629,270.997,360.73z M372.678,271.946h-101.68v-60.988h117.877
	C386.175,232.553,380.774,253.65,372.678,271.946z M270.997,180.964v-60.988h110.978c5.699,17.995,8.998,39.093,8.998,60.988
	H270.997z"/>
<g>
</g>
<g>
</g>
<g>
</g>
<g>
</g>
<g>
</g>
<g>
</g>
<g>
</g>
<g>
</g>
<g>
</g>
<g>
</g>
<g>
</g>
<g>
</g>
<g>
</g>
<g>
</g>
<g>
</g>
</svg>
