<svg id="Capa_1" enable-background="new 0 0 497 497" height="512" viewBox="0 0 497 497" width="512" xmlns="http://www.w3.org/2000/svg"><g id="_x3C_Group_x3E__42_"><path d="m462.696 419.926-9.428 32.545v11.381c0 .732-.263 1.429-.725 1.972-.19.224-1.414 2.421-1.667 2.585l-6.883 4.447c-2.573 2.728-3.435 6.135-3.435 11.652 0 6.886 5.585 8.468 12.475 8.468h11.942c10.514 0 19.438-2.801 22.607-12.242.8-2.383 1.233-4.933 1.233-7.585v-41.6-1.862c-.077-4.571-14.39-13.422-25.609-13.422z" fill="#cf9875"/><path d="m270.006 447.27-10 9.849c0 4.573-3.707 8.28-8.28 8.28h-12.115c-1.308 0-2.593.096-3.849.281-12.686 1.867-16.425 12.82-16.425 26.053 0 2.909 2.349 2.267 5.248 2.267h56.61c5.135-.095 12.235 2.871 12.17-5.754l5-6.246v-6.874l-10-19.999-9.074-3.798z" fill="#cf9875"/><path d="m488.815 429.688c0-11.212-9.094-20.301-20.313-20.301h-15.235v43.084l29.104-14.7c2.863-1.446 5.027-3.653 6.444-6.222z" fill="#c27e4e"/><path d="m260.006 437.27v19.849c0 .05-.007.097-.007.147l38.366 17.86v-19.999l-18.143-8.446z" fill="#c27e4e"/><path d="m349.67.111c-5.212.427-13.261 2.217-21.21 7.217-7.596 4.777-14.382 21.347-14.947 24.734-1.029 6.161 3.439 39.225 17.411 59.574.696 1.014 2.246 5.637 3.188 5.796 2.803-1.197 27.44-12.22 34.131-39.634 5.076-20.797-2.127-43.035-18.573-57.687z" fill="#dcd2cd"/><path d="m349.111 82.432c-.943-.159-2.022-.405-3.188-.796-18.224-6.097-32.574-38.897-22.411-64.574 1.437-3.632 3.114-6.853 4.951-9.728-6.039 3.797-12.02 9.442-16.655 17.751-1.196 2.144 7.698 4.465 6.704 6.977-1.016 2.567-11.787 5.205-12.334 7.881-1.055 5.163-1.274 10.466-.806 15.664.232 2.58 10.634 5.135 11.187 7.634.558 2.523-8.73 4.989-7.883 7.369 4.513 12.675 12.867 22.887 22.247 26.026 1.167.39 2.246.637 3.188.796 2.062-.88 15.929-7.087 25.786-21.21-5.329 3.798-9.7 5.746-10.786 6.21z" fill="#c8beb9"/><path d="m345.932 40.09h-30.817c.504-2.357 1.256-5.082 2.397-8.028 1.042-2.689 2.196-5.017 3.305-6.972h28.115z" fill="#766d78"/><path d="m342.864 70.606h-20.174c-.857-2.319-1.693-5.053-2.33-8.159-.509-2.479-.805-4.779-.968-6.841h26.472z" fill="#766d78"/><path d="m306.97 36.682c-.405 1.508-.084.24-.808 3.408h14.174c-.404-4.984-.169-10.053.826-15-3.115 0-6.23 0-9.344 0-.621 1.236-2.957 5.041-4.848 11.592z" fill="#655e67"/><path d="m323.687 55.606c-6.099 0-12.197 0-18.296 0 .046.579.105 1.181.174 1.796.489 4.045 1.387 8.008 2.625 11.776.165.487.331.972.5 1.427h23.01c-3.264-4.248-6.013-9.381-8.013-14.999z" fill="#655e67"/><path d="m407.585 104.261c-2.41-4.025-5.116-7.895-8.107-11.576l-.256-.315-50.228 27.811-34.568 63.846-.273 54.445h92.702l2.138-46.632 11.58-13.877.931-17.656c1.042-19.754-3.864-39.253-13.919-56.046z" fill="#766d78"/><path d="m303.508 144.622 55.544 13.15-.006 3.049c-.032 17.591 14.379 31.782 31.968 31.479l29.556-.509c2.353-.041 4.247 1.922 4.124 4.272l-2.561 48.563c-.114 2.156-1.895 3.845-4.054 3.845h-110.507c-2.008 0-3.715-1.469-4.014-3.455z" fill="#766d78"/><path d="m401.013 178.301c-9.567.165-16.567-3.431-20.971-9.193-1.416-1.852-1.428-4.464.087-6.236 8.358-9.773 10.589-27.418 3.177-37.33l2.272 2.579c-8.394-11.224-24.304-13.517-35.536-5.122l-21.907 16.374-13.71 44.653-2.39 29.209c3.517-1.618.056 9.946 3.171 7.626l4.583 13.61h97.804l2.291-43.443.689-13.065z" fill="#655e67"/><path d="m478.27 414.394-63.267 31.929c-6.926 3.498-15.377 1.234-19.623-5.257l-53.043-81.087-28.184-119.506h54.5l48.202 8 11.651 53.364c3.573 16.366 10.811 31.709 21.169 44.878l37.801 48.058c5.945 7.557-.621 15.284-9.206 19.621z" fill="#766d78"/><path d="m487.477 394.772-.025-.032-74.631 37.695c-4.545 2.296-10.089.809-12.877-3.452l-30.652-46.858c-1.54-2.354-2.017-5.248-1.314-7.972l6.778-26.275 28.02-99.624-52.59-5.947-41.032 6.164 28.184 119.506 53.043 81.087c4.247 6.492 12.695 8.757 19.62 5.259l72.359-36.547c8.582-4.334 11.052-15.438 5.117-23.004z" fill="#655e67"/><path d="m390.273 248.598-41.79-10.065-28.33 9.939-39.913 34.13c-16.183 13.838-29.631 30.584-39.65 49.372l-31.37 58.828c-4.113 7.713-.902 17.298 7.028 20.977l88.169 41.56c8.629 4.017 21.786 5.218 24.163-3.998l26.175-101.463z" fill="#766d78"/><path d="m218.241 395.77 110.85 51.6-.51 1.97c-2.38 9.22-12.54 14.02-21.16 10l-102.17-47.56c-7.93-3.68-11.15-13.26-7.03-20.98l31.37-58.83c10.02-18.78 23.47-35.53 39.65-49.37l39.91-34.13 34.44.06-61.35 49.27c-14.35 12.27-26.12 26.93-35 43.59z" fill="#655e67"/><path d="m349.377 60.691 39.702.128 12.901-7.109 12.988-32.335c4.092-10.186-3.398-21.284-14.376-21.3l-33.312-.049-12.414 7.176z" fill="#8c818f"/><path d="m362.31 48.197 4.97-48.171-17.933-.026-7.606 73.71 28.529 10 23.676-10 8.034-20h-34.696c-2.965 0-5.278-2.564-4.974-5.513z" fill="#766d78"/><path d="m479.974 481.977h-14.942c-6.89 0-12.475-5.582-12.475-12.468 0-3.027-.003-3.673-.003-3.673-.122.114-.332.303-.61.516-.452.344-.826.55-.945.617-.045.025-1.437.926-4.221 2.729-.416.269-1.032.669-1.785 1.16-1.217.786-3.67 2.601-5.456 5.88-1.279 2.349-1.979 5.013-1.979 7.771 0 6.886 5.585 12.468 12.475 12.468h14.942c10.513 0 19.431-6.804 22.601-16.244-2.389.802-4.943 1.244-7.602 1.244z" fill="#c27e4e"/><path d="m309.76 333.883-28.41-2.31c-9.905-1.409-12.282-10.59-7.927-19.596l24.942-54.281c2.681-5.545 5.651-9.205 11.81-9.205l35.935-1.111-18.984 79.451c-1.766 7.424-9.812 8.127-17.366 7.052z" fill="#dcd2cd"/><path d="m372.126 330.517h-6.792c-6.491 0-11.634-5.476-11.223-11.95l1.661-70.445 34.5-.37 12.097 74.763-3.02 6.055c-1.845 2.249-20.733 1.947-27.223 1.947z" fill="#dcd2cd"/><path d="m402.359 322.517h-30.025c-6.491 0-11.634-5.476-11.223-11.95l1.287-65.333-16.626 2.888-1.661 80.445c-.411 6.474 4.732 11.95 11.223 11.95h36.792c6.49 0 11.632-5.474 11.223-11.947z" fill="#c8beb9"/><path d="m304.294 320.714c-9.905-1.409-15.574-12.05-11.218-21.056l24.742-51.166-3.611-10.021-4.166 9.976c-6.159 0-11.64 3.567-14.321 9.112l-26.644 55.099c-4.355 9.007 1.314 19.647 11.218 21.056l30.381 4.323c7.555 1.075 14.685-3.781 16.452-11.205l.661-2.775z" fill="#c8beb9"/><path d="m313.508 204.622 41.544-33.85-.006 3.049c-.012 6.304 5.832-.829 9.012 4.091 5.693 8.809 15.671 14.582 26.956 14.388l29.556-.509c2.353-.041 4.247 1.922 4.124 4.272l-1.699 32.409-3.58 11.07c-.114 2.156-2.176 3.93-4.335 3.93h-97.506c-2.008 0-3.715-1.469-4.014-3.455z" fill="#8c818f"/><path d="m364.061 177.91-50.8 37.97c-3.09 2.31-6.32 4.35-9.71 6.12l-.03-60.1-.01-17.28 17.85 4.23 37.69 8.92-.01 3.05c-.01 6.31 1.83 12.17 5.02 17.09z" fill="#655e67"/><path d="m238.585 482c-2.898 0-5.248-2.358-5.248-5.267 0-3.947.872-7.688 2.425-11.049-12.686 1.867-22.425 12.817-22.425 26.049 0 2.909 2.349 5.267 5.248 5.267h67.61c5.135-.095 12.235-5.129 12.17-13.754v-1.246z" fill="#c27e4e"/><path d="m285.319 204.816-25.917 9.315c-5.921 1.843-13.21-2.476-15.024-8.402l-7.992-26.909c-2.064-6.744 2.561-13.693 9.583-14.396l3.623-2.864 11.377-1.139c10.061-1.007 19.658-4.739 27.757-10.792l42.316-31.629c11.232-8.395 22.239-7.852 30.633 3.372l1.617.426c8.394 11.224 8.38 22.452-2.852 30.847l-58.356 43.617c-5.062 3.783-10.731 6.676-16.765 8.554z" fill="#8c818f"/><path d="m327.572 228.472c-2.008 0-3.715-1.469-4.014-3.455l-.007-14.63c-.001-1.383.651-2.685 1.759-3.513l38.751-28.964c-3.19-4.92-5.03-10.78-5.02-17.09l.01-3.05-7.3-1.73-28.217 21.301-20.027 13.516.051 54.16c.299 1.986 2.005 3.455 4.014 3.455h110.506c2.159 0 3.94-1.69 4.053-3.845l.852-16.155z" fill="#655e67"/><path d="m317.083 173.262c-5.062 3.783-10.731 6.676-16.764 8.555l-29.917 9.315c-5.921 1.843-12.21-1.476-14.024-7.402l-6.786-22.169-8.623.864c-7.022.703-11.647 7.652-9.583 14.396l-4.978 16.406 14.385 14.324 1.585 5.179c1.814 5.926 8.103 9.246 14.024 7.402l29.917-9.315c6.034-1.878 11.703-4.771 16.764-8.555l58.356-43.617c8.22-6.144 11.65-16.309 9.611-25.719z" fill="#766d78"/><path d="m240.774 207.555-11.466 4.992c-5.614 3.913-12.22 6.159-19.055 6.48-15.693.736-26.791-35.953-25.877-40.799 15.014-6.003 31.667-6.502 47.01-1.409l4.286 14.032z" fill="#cf9875"/><path d="m224.252 208.027c-15.693.736-29.474-10.322-32.147-25.795l-.896-5.189c-.063-.362-.105-.724-.133-1.084-2.261.643-4.5 1.39-6.701 2.27-5.116 2.045-8.104 7.389-7.167 12.815l.896 5.189c2.673 15.473 16.454 26.531 32.147 25.795 6.835-.321 13.441-2.567 19.055-6.48l11.466-7.992-1.153-3.774c-4.731 2.523-9.973 3.992-15.367 4.245z" fill="#c27e4e"/><path d="m372.61 131.589-4.627.074c-20.464.097-35.062-14.808-28.819-34.297l7.577-15.656 13.594-8h33.611l10.471 20.412c3.624 7.066 4.061 14.62 2.095 21.369-3.418 11.734-20.096 16.033-33.902 16.098z" fill="#8c818f"/><path d="m398.61 116.589-20.495.953c-20.464.097-28.37-7.235-22.128-26.723l4.347-17.109h-18.594l-7.577 23.656c-6.243 19.489 8.355 39.394 28.819 39.297l15.627-.074c13.806-.065 24.472-9.368 27.89-21.101-2.482.7-5.122 1.088-7.889 1.101z" fill="#766d78"/><path d="m172.908 187.16-160.085-157.958c-2.383-2.298-2.213-11.064-.596-12.851l1.191-1.191c1.447-1.872 11.975-9.507 17.865-4.218.202.181.4.369.593.562l158.14 158.14z" fill="#855b51"/><path d="m30.664 32.717c-5.858-5.858-5.858-15.355 0-21.213.195-.195.404-.366.606-.548-5.889-5.286-14.944-5.115-20.606.548-5.858 5.858-5.858 15.355 0 21.213l158.14 158.14 10-10z" fill="#724d44"/><path d="m157.341 209.814c-1.919 0-3.839-.732-5.303-2.197-2.929-2.929-2.929-7.678 0-10.606l41.627-41.627c2.929-2.929 7.678-2.929 10.606 0 2.929 2.929 2.929 7.678 0 10.606l-41.627 41.627c-1.465 1.465-3.384 2.197-5.303 2.197z" fill="#67463e"/></g></svg>