<svg id="Capa_1" enable-background="new 0 0 497 497" height="512" viewBox="0 0 497 497" width="512" xmlns="http://www.w3.org/2000/svg"><g id="_x3C_Group_x3E__32_"><path d="m371.662 81.734-3.794 17.162 20.292 2.649 13.19-7.883 48.042-42.429-.862-22.945-15.064 4.198z" fill="#ebe1dc"/><path d="m397.684 73.342 51.012-40.649-.166-4.405-19.064-.802-61.803 49.248.206 22.163 22.292 4.649 11.19-9.883-5.095-6.072c-3.615-4.307-2.969-10.745 1.428-14.249z" fill="#dcd2cd"/><path d="m254.068 468-24.823-11.564-2.177-69.436h29z" fill="#ebe1dc"/><path d="m237.827 443.247-1.388-56.247h-15.37l2 81h31l.37-15h-6.614c-5.427 0-9.864-4.328-9.998-9.753z" fill="#dcd2cd"/><path d="m82.409 482c0 8.284 1.716 15 10 15 8.284 0 15-6.716 15-15v-147.787l-25-.053z" fill="#855b51"/><path d="m86.947 240.947c-12.406 1.804-18.589 11.745-19.404 13.106-1.976 4.739-8.066 21.007-1.872 39.83 3.609 10.967 9.9 18.279 13.787 22.128 8.794 1.021 17.589 2.043 26.383 3.064.523-2.468 1.045-4.936 1.568-7.404 0-15.915 0-31.83 0-47.745 1.52-4.369 3.04-8.738 4.56-13.106-.53-.642-10.265-12.02-25.022-9.873z" fill="#855b51"/><path d="m91.409 244.16 12.251.022c-4.25-2.361-9.952-4.218-16.713-3.234-12.406 1.804-18.589 11.745-19.404 13.106-1.976 4.739-8.066 21.007-1.872 39.83 3.609 10.967 9.9 18.279 13.787 22.128 3.984.463 7.967.925 11.951 1.388z" fill="#724d44"/><path d="m107.409 15c0-8.284-6.716-15-15-15-8.284 0-11 6.716-11 15v150.032l26 29.745z" fill="#855b51"/><path d="m91.409 482v-147.816l-14-.025v147.841c0 8.284 6.716 15 15 15 2.53 0 4.909-.632 7-1.738-4.756-2.516-8-7.507-8-13.262z" fill="#724d44"/><path d="m91.409 165.032v-150.032c0-5.755 3.244-10.746 8-13.262-2.091-1.106-4.471-1.738-7-1.738-8.284 0-15 6.716-15 15v150.032l30 29.745v-13.881z" fill="#724d44"/><path d="m390.867 104.258-23.783-28.344c-4.97-5.923-13.801-6.696-19.724-1.726l-52.752 44.264-75.236 101.558-8.932 150.915c0 7.732 6.268 14 14 14l33-2c7.732 0 14-1.268 14-9v-113.931c0-23.613 10.447-46.016 28.535-61.194l89.165-74.818c5.924-4.971 6.697-13.801 1.727-19.724z" fill="#e9a761"/><g><path d="m226.44 372.926c-2.761 0-5-2.239-5-5v-152.77l-15 8.041v150.728c0 7.732 6.268 14 14 14h37c7.732 0 14-6.268 14-14v-1h-45z" fill="#e69642"/></g><path d="m431.798 26.223 21.277 21.617c1.497 1.784.393 3.101 2.468 2.043l10.685-2.445 3.918-1.999c5.154-2.629 6.524-9.37 2.805-13.802l-16.833-20.06-5.426-1.949c-3.719-4.433-5.622-3.769-9.106.851l-7.489 12.255c-1.404 1.859-3.796 1.705-2.299 3.489z" fill="#8c818f"/><path d="m449.216 27.165c-1.497-1.784-1.564-4.366-.162-6.225l7.063-9.363-3.263-3.889c-3.719-4.433-10.595-4.254-14.08.365l-9.72 12.887c-1.402 1.859-1.335 4.441.162 6.225l20.448 24.369c1.497 1.784 4.028 2.298 6.102 1.24l10.461-5.336z" fill="#766d78"/><path d="m213.99 186.099 19.128 22.796-26.678 14.302v63.026l21.74 6.936c13.021 4.468 20.298-1.787 23.234-11.489l43.193-163.218z" fill="#e69642"/><path d="m107.77 154.649-3.33 43.196-55.214 15.013c-5.567 5.535-9.195 15.465-9.297 23.315l-.071 5.478c-.347 26.563 8.066 52.5 23.937 73.802l5.188 6.963 8.436-16.09.008-37.959c.001-6.985 6.981-16.816 13.519-14.358l7.929 2.981c3.846 1.446 7.949 2.087 12.053 1.882l65.395-3.264 48.512 15.041c5.431 1.684 9.17 3.507 10.627-1.989l3.751-6.604 33.114-124.903-55.276 20.94z" fill="#f0c99d"/><g fill="#e9a761"><path d="m235.835 261.647-48.512-15.041-76.395 3.264c-4.104.205-8.207-.436-12.053-1.882l-7.929-2.981c-6.538-2.458-13.518 2.373-13.519 9.358l-.008 37.959.003 1.2.005-25.159c.001-6.985 6.981-11.816 13.519-9.358l7.929 2.981c3.846 1.446 7.949 2.087 12.053 1.882l65.395-3.264 48.512 15.041c5.431 1.684 11.17-1.493 12.627-6.989l1.744-6.579c-1.11.046-2.246-.083-3.371-.432z"/><path d="m71.795 302.452c-15.871-21.302-24.284-47.24-23.937-73.802l.071-5.478c.052-3.976.895-7.86 2.435-11.446l-4.59 4.564c-5.567 5.535-8.743 13.032-8.845 20.882l-.071 5.478c-.347 26.563 8.066 52.5 23.937 73.802l5.188 6.963 10.151-15.17z"/></g><path d="m184.728 258.223-16.256-2.68 20.788-92.681 8.047-5.413 19.744.642-19.321 91.86z" fill="#e9a761"/><path d="m180.134 242.279 17.173-84.83-18.047-.587-21.191 104.681 36.255 4.681 3.42-16.27-13.349-1.723c-2.879-.372-4.837-3.108-4.261-5.952z" fill="#e69642"/><path d="m265.215 56.463-11.742 11.729-13.505 2.202-8.17-9.872 27.064-33.872c1.953-1.953 5.277-.851 5.277-.851 2.282 2.282 5.117.216 6.332 3.006 3.979 9.143 2.227 20.183-5.256 27.658z" fill="#cf9875"/><path d="m246.711 52.559 23.752-23.752c-1.215-2.791-2.956-5.408-5.239-7.69-1.953-1.953-5.118-1.953-7.071 0l-34.596 34.596-.823 21.549 19.589 2.068 11.15-11.138-7.141-8.987c-1.581-1.99-1.418-4.849.379-6.646z" fill="#c27e4e"/><path d="m107.018 155.401 101.04-101.04c4.216-4.216 11.16-3.83 14.882.827l26.577 33.25c3.46 4.329 2.74 10.646-1.605 14.085l-68.653 54.339-33.991 8.245c-11.36 2.755-23.135 3.014-34.523.815" fill="#f0c99d"/><path d="m121.95 193.08-.18.37c-.67 1.41-1.79 3.77-3.87 6.1-10.24 11.51-25.63 17.84-43.33 17.84-8.63 0-17.29-1.52-25.43-4.44l.09-.09 58.53-58.2 10.35-10.35c8.49 15.46 11.29 33.49 3.84 48.77z" fill="#e9a761"/><path d="m103.407 351.053h-23.016l-10.91-25.633c-1.131-2.967-.647-6.308 1.278-8.834l5.196-6.815c1.307-1.715.054-2.966 1.995-3.67 2.064-.748 4.35-.878 6.566-.29l22.927 6.087c4.726 1.255 7.639 5.995 6.624 10.778l-3.477 16.376z" fill="#cf9875"/><path d="m92.836 339.053c-2.075 0-3.934-1.281-4.672-3.22l-9.683-25.413c-.532-1.397-.694-2.875-.529-4.313-1.942.704-3.69 1.95-4.997 3.665l-5.196 6.815c-1.925 2.525-2.409 5.866-1.278 8.834l10.909 28.633h30.016l3.184-15h-17.754z" fill="#c27e4e"/><path d="m121.95 193.08-.18.37c-.67 1.41-1.79 3.77-3.87 6.1-10.24 11.51-25.63 17.84-43.33 17.84-8.63 0-17.29-1.52-25.43-4.44l.09-.09 58.53-58.2 10.35-10.35c8.49 15.46 11.29 33.49 3.84 48.77z" fill="#e9a761"/><path d="m80.515 127.267c-12.879-6.347-27.234-5.806-38.543.221-6.874 3.664-10.482 9.8-14.089 17.203-9.542 19.583-.632 41.288 20.076 51.493 19.569 9.644 45.285 8.507 58.735-6.602.781-.877 1.25-1.998 1.775-3.076 9.543-19.582-7.246-49.033-27.954-59.239z" fill="#cf9875"/><path d="m57.959 188.185c-20.708-10.206-29.76-34.355-20.217-53.938 1.19-2.442 2.613-4.697 4.232-6.755-6.874 3.664-12.625 9.351-16.232 16.755-9.542 19.583-.491 43.732 20.217 53.938 19.569 9.644 49.441 8.112 60.723-8.61-14.062 6.76-34.221 5.757-48.723-1.39z" fill="#c27e4e"/><path d="m200.068 467h54l1 15-1.355 9.667c.192 2.886-.097 2.333-2.989 2.333h-67.656c-2.761 0-5 .761-5-2 0-12.792 6.608-23.341 19.002-24.822.983-.118 1.983-.178 2.998-.178z" fill="#8c818f"/><path d="m255.068 482h-55c-2.761 0-5-2.239-5-5 0-3.484.715-6.801 2.002-9.815-12.393 1.482-22.002 12.023-22.002 24.815 0 2.761 2.239 5 5 5h70.656c2.892 0 5.181-2.447 4.989-5.333z" fill="#766d78"/></g></svg>