<svg id="Capa_1" enable-background="new 0 0 497 497" height="512" viewBox="0 0 497 497" width="512" xmlns="http://www.w3.org/2000/svg"><g id="_x3C_Group_x3E__50_"><path d="m118.256 483h-40.15c-5.523 0-10-4.477-10-10v-185c0-5.523 4.477-10 10-10h31c5.523 0 10 4.477 10 10v37.16z" fill="#ca4646"/><path d="m387.669 478.479h-43.314c-4.902 0-8.877-3.801-8.877-8.49v-87.148c0-4.689 3.974-8.49 8.877-8.49h43.666z" fill="#ca4646"/><path d="m83.106 477c-2.761 0-5-2.239-5-5v-194h-10c-5.523 0-10 4.477-10 10v199c0 5.523 4.477 10 10 10h48.149l.332-20z" fill="#ba3434"/><path d="m353.83 477c-2.761 0-5-2.239-5-5v-97.649h-10c-5.523 0-10 4.477-10 10v102.649c0 5.523 4.477 10 10 10h48.795l-1.566-20z" fill="#ba3434"/><path d="m137.894 489.457h-15.564c-5.523 0-10-4.477-10-10v-134.17c0-5.523 4.477-10 10-10l4.511-10h21.053c5.523 0 10 4.477 10 10v141.713l-10 2.457c0 5.523-4.478 10-10 10z" fill="#ca4646"/><path d="m131.894 477c-2.761 0-5-2.239-5-5v-146.713h-10c-5.523 0-10 4.477-10 10v151.713c0 5.523 4.477 10 10 10h31c5.523 0 10-4.477 10-10v-10z" fill="#ba3434"/><path d="m389.351 297.008c0-5.311 3.652-9.616 8.157-9.616h33.442c4.505 0 8.157 4.305 8.157 9.616v182.323c0 5.311-3.652 9.616-8.157 9.616h-33.442c-4.505 0-8.157-4.305-8.157-9.616z" fill="#ca4646"/><path d="m403.106 477c-2.761 0-5-2.239-5-5v-184.608h-10c-5.523 0-10 4.477-10 10v189.608c0 5.523 4.477 10 10 10h41c5.523 0 10-4.477 10-10v-10z" fill="#ba3434"/><path d="m223.657 330.459 3.29 86.243 14.125.333 10.577-15.165 2.721-71.445z" fill="#dcd2cd"/><path d="m236.584 392.192-2.355-61.748-15.572.015 3.29 89.243 29.125.332.578-18.165-5.187-.059c-5.33-.06-9.676-4.291-9.879-9.618z" fill="#c8beb9"/><path d="m209.904 255.138c.002 20.242 3.004 29.484 3.005 49.726 0 8.284 6.716 15 15 15h30.208c1.201.001 2.748-.138 4.456-.673 4.069-1.275 6.508-4.001 7.532-5.31 1.259-8.149-.481-5.297.778-13.446-.34-22.184-.681-44.369-1.021-66.553-20.198 4.028-40.397 8.057-60.596 12.085-2.121 3.058 2.759 6.115.638 9.171z" fill="#e9a761"/><path d="m80.718 104.973-12.479-5c-9.941 0-12-8.059-12-18v-.108c0-11.184.8-20.779 10.49-24.878 3.23-1.366 6.782-2.122 10.51-2.122 1.657 0 3 1.343 3 3v31.045l10 10.76z" fill="#cf9875"/><path d="m413.862 99.245 2.9-10.334 5-21.045c0-1.657 3-3 3-3 4.312 0 3.387-8.989 7.003-7.192 8.889 4.419 14.997 13.592 14.997 24.192v10.108c0 1.055-.091 2.088-.265 3.093-1.466 8.467-8.849 10.907-17.735 10.907h-12.517z" fill="#cf9875"/><path d="m65.239 76.973v-10.108c0-3.556.694-6.948 1.943-10.057-9.929 3.989-16.943 13.701-16.943 25.057v10.108c0 9.941 8.059 18 18 18h12.479l9.521-6.771-10-8.499c-8.51-1.43-15-8.813-15-17.73z" fill="#c27e4e"/><path d="m443.761 94.973c-6.627 0-12-5.373-12-12v-3.399-21.895c-3.606-1.793-7.667-2.808-11.967-2.813-1.668-.002-3.033 1.332-3.033 3v31.045l-3 10.664 2.483 10.399h12.517c8.998 0 16.432-6.61 17.766-15.234-.904.139-1.823.233-2.766.233z" fill="#c27e4e"/><path d="m307.968 181.694-.22-33.169c-.069-10.485 8.809-18.807 19.268-18.06l57.659 4.119c17.333 1.238 32.076-12.489 32.076-29.866v-15.807h-75.434c-15.52 0-30.901-1.704-46.135-4.457-2.62-.473-15.236 9.022-17.847 8.49-2.993-.61 4.02-11.256 1.038-11.934-3.531-.802-7.054-1.649-10.568-2.531-.787-.197-1.592 6.691-2.404 6.673l-2.483-.057-28.808-.013h-2.194c-.976 0-1.946-6.866-2.887-6.609-25.371 6.927-51.555 10.438-77.859 10.438h-51.912l-17 6v9.817c0 17.373 12.737 29.099 30.066 27.867l57.997-4.124c11.102-.789 22.249 10.592 21.179 21.671l-8.424 87.22c-1.122 11.617 7.582 18.853 18.909 16.041l64.017-15.891z" fill="#f0c99d"/><path d="m222.91 302.864c0-9.03-.001-19.914-.002-30.745 0-2.298 1.565-4.3 3.795-4.853l39.3-9.755 4.137-5.503c-.093-6.042-.185-12.084-.278-18.126-19.736 3.936-39.473 7.872-59.21 11.809-2.756 3.36-4.992 6.087-7.748 9.447l.001 18.036c.001 14.23.003 28.46.004 42.691 0 8.284 6.716 15 15 15h37.208c1.201.001 2.748-.138 4.456-.673 4.069-1.275 6.508-4.001 7.532-5.31.722-4.672 1.444-9.345 2.167-14.018h-38.362c-6.155 0-8-1.832-8-8z" fill="#e69642"/><path d="m211.5 236.757c-6.698 1.663-13.026-3.798-12.363-10.667l7.998-80.803c1.785-18.478-13.472-34.125-31.989-32.809l-54.469 3.873c-11.575.823-21.419-8.345-21.419-19.95v-7.492h-19v15.817c0 17.373 14.737 31.099 32.066 29.867l57.997-4.124c11.102-.789 20.249 8.592 19.179 19.671l-8.424 87.22c-1.122 11.617 9.582 20.853 20.909 18.041l64.017-15.891 13.984-19.755z" fill="#e9a761"/><path d="m275.679 228.873s1.826 63.101 1.842 63.307l11.489 2.468c.018-.222 9.707-6.262 9.715-6.486l2.174-59.365z" fill="#dcd2cd"/><path d="m298.726 288.163-5.554-.003c-5.368-.003-9.776-4.243-9.987-9.607l-1.917-50.713-15.589.033 2.898 75.034c.005.005-.006.243-.001.247l28.921.015c.266-.256.383-.007.649-.263z" fill="#c8beb9"/><path d="m256.277 489.883h-34.883c-5.523 0-10-4.477-10-10v-21.021c0-5.523 4.477-10 10-10l17.766-10 16.404 10h.713c5.523 0 10 4.477 10 10v21.021c0 5.523-4.478 10-10 10z" fill="#ca4646"/><path d="m230.277 477c-2.761 0-5-2.239-5-5v-23.138l-4.798-10-4.553 10h-.649c-5.523 0-10 4.477-10 10v28.138c0 5.523 4.477 10 10 10h41c5.523 0 10-4.477 10-10v-10z" fill="#ba3434"/><path d="m298.823 227.053h-31.09c-8.284 0-12-3.716-12-12v-18.16c0-12.426 7.074-22.5 19.5-22.5h16.09c12.426 0 22.5 10.074 22.5 22.5v15.16c0 8.285-6.716 15-15 15z" fill="#e9a761"/><path d="m277.733 210.053c-2.761 0-5-2.239-5-5v-28.16c0-.802.044-1.594.126-2.374-11.31 1.186-20.126 10.75-20.126 22.374v18.16c0 8.284 6.716 15 15 15h31.09c8.284 0 15-6.716 15-15v-5z" fill="#e69642"/><path d="m283.661 37.169c.046-20.571-15.657-37.213-35.073-37.169-5.598.013-10.893 1.411-15.596 3.887-11.61 6.114-16.611 18.799-16.644 33.44-.046 20.572 12.824 42.454 32.24 42.411 10.778-.024 20.384-4.724 26.805-15.09 5.146-8.307 8.247-18.326 8.268-27.479z" fill="#cf9875"/><path d="m265.4 78.152-2.483-.057-28.808-.013h-2.194c-.976 0-1.946.134-2.887.391-2.006.548-4.018 1.066-6.033 1.571 6.861 7.557 15.821 12.715 25.602 12.695 9.756-.02 18.637-5.188 25.436-12.742-2.079-.494-4.156-.996-6.229-1.517-.787-.198-1.592-.309-2.404-.328z" fill="#e9a761"/><path d="m263.588 67.738c-19.416.044-35.286-24.839-35.24-45.411.015-6.704 1.709-12.993 4.647-18.434-11.61 6.114-19.615 18.793-19.647 33.434-.046 20.572 15.823 45.454 35.24 45.411 10.811-.024 20.437-7.775 26.859-18.188-3.701 2.016-7.691 3.179-11.859 3.188z" fill="#c27e4e"/><path d="m245.809 445.862c.552 0 1-.448 1-1l10-11v-3.473c0-9.665-7.835-17.5-17.5-17.5h-6.969c-.803 0-1.58.054-2.329.159-8.265 1.156-13.171 8.479-13.171 17.341l10 14.473c0 .552.448 1 1 1z" fill="#e9a761"/><path d="m283.388 349.789c-9.732 0-15.44-6.222-14.812-15.934l2.001-30.948h27.569l2.052 30.919c.611 9.738-7.066 15.963-16.81 15.963z" fill="#e9a761"/><path d="m239.202 433.862c-5.17 0-9.362-4.191-9.362-9.362v-9.111c0-.791.071-1.564.173-2.328-8.562 1.141-15.173 8.454-15.173 17.328v17.473c0 .552.448 1 1 1h39.969c.552 0 1-.448 1-1v-14z" fill="#e69642"/><path d="m298.388 336.789c-9.732 0-17.439-8.222-16.812-17.934l1.031-15.948h-14.03l-2 30.948c-.628 9.712 7.08 17.934 16.812 17.934 8.765 0 15.864-6.675 16.736-15.091-.571.058-1.15.091-1.737.091z" fill="#e69642"/><path d="m183.245 214.702 2.553-26.011 92.574-107.68 16.809 3.446z" fill="#e9a761"/></g></svg>