<svg id="Capa_1" enable-background="new 0 0 497 497" height="512" viewBox="0 0 497 497" width="512" xmlns="http://www.w3.org/2000/svg"><g id="_x3C_Group_x3E__49_"><path d="m204.883 106.33h86.234v104.213h-86.234z" fill="#e69642"/><path d="m164.727 281.193-17.037 70.761h201.62l3.674-12-12.712-58.765-91.283-59.998z" fill="#e9a761"/><path d="m166.001 333.897 14.784-68.35-24.058 15.646-17.036 78.761 109.895 10 107.724-10-4.326-20h-182.096c-3.188 0-5.561-2.942-4.887-6.057z" fill="#e69642"/><path d="m78.161 443.939v-21.679c0-17.176.956-43.379 17.124-48.871.429-.146.861-.284 1.297-.416l43.064-13.023 217.696-.003 43.075 13.026c16.877 5.104 28.422 20.656 28.422 38.288v18.679l-10 14h-340.678z" fill="#f0c99d"/><path d="m98.161 429.939c-2.761 0-5-2.239-5-5v-38.679c0-4.468.744-8.802 2.126-12.867-16.168 5.492-27.126 20.691-27.126 37.867v43.679l176.659 9 184.02-9v-25z" fill="#e9a761"/><path d="m487 455h-472.777c-5.523 0-10 4.477-10 10v12.309c0 5.523 4.477 10 10 10h472.777c5.523 0 10-4.477 10-10v-12.309c0-5.523-4.477-10-10-10z" fill="#ca4646"/><path d="m20 475c-2.761 0-5-2.239-5-5v-15h-5c-5.523 0-10 4.477-10 10v15c0 5.523 4.477 10 10 10h477c5.523 0 10-4.477 10-10v-5z" fill="#ba3434"/><path d="m116.134 222.816 42.071-58.531c5.864-8.158 13.073-15.123 21.236-20.653l42.569 64.017 54.298-.681 53.605-63.063c8.036 5.495 15.137 12.387 20.926 20.442l42.111 58.586z" fill="#f0c99d"/><g fill="#e9a761"><path d="m129.134 222.816 42.071-58.531c5.864-8.158 13.073-15.123 21.236-20.653l12.548-17.345-.106-19.957-37.442 37.302c-8.163 5.53-15.372 12.495-21.236 20.653l-42.071 58.531z"/><path d="m248.72 179.682 43.206-73.076 37.987 37.299-51.409 77.28z"/><path d="m218.504 221.182-51.025-77.565 37.404-37.287 43.837 73.352z"/><path d="m218.504 262.337-3 7.628c0 5.813-4.94 10.402-10.738 9.973l-68.695-4.673c-20.989-1.553-37.071-13.803-37.071-34.851l-.128-.511c0-9.941 3.031-17.722 12.972-17.722l2.05-1h104.61l10 18.382z"/></g><path d="m151.061 259.265c-20.321-1.503-36.187-17.938-37.177-38.083h-2.05c-9.941 0-18 8.059-18 18 0 21.047 16.237 38.53 37.227 40.083l76.695 5.673c5.798.429 10.738-4.159 10.738-9.973v-12.628z" fill="#e69642"/><path d="m288.535 231.182 9.997-10h86.634c9.941 0 18 8.059 18 18 0 5.903-1.277 11.527-3.579 16.596-5.904 13.005-18.546 12.369-33.648 13.486l-66.675 5.673c-5.798.429-10.739-4.16-10.738-9.974l.002-2.643z" fill="#e9a761"/><path d="m385.939 259.265-76.675 5.673c-5.798.429-10.739-4.16-10.738-9.974l.002-12.643.004-21.139-20.025.009-10.003 16.075 9.996 25.064-.002 12.643c-.001 5.814 4.939 10.403 10.738 9.974l76.703-5.681c15.102-1.117 27.743-10.482 33.647-23.487-4.202 1.908-8.795 3.127-13.647 3.486z" fill="#e69642"/><path d="m268.5 252.33h-40v-42.638c0-12.168-2.756-22.643 7.654-27.35 1.621-.733 3.319-1.326 5.079-1.764 2.327-.579 4.761 9.114 7.267 9.114 2.674 0 5.267-9.65 7.735-8.993 12.82 3.411 22.265 15.099 22.265 28.993v37.638z" fill="#cf9875"/><path d="m256.234 243.463v-62.763c-1.885-.506-4.452-.996-7.514-1.017-3.042-.021-5.601.426-7.486.9v62.88c0 2.136-1.731 3.867-3.867 3.867-2.136 0-3.867-1.731-3.867-3.867v-48.771c0-4.401.956-8.577 2.658-12.342-10.41 4.707-17.658 15.175-17.658 27.342v52.638h60v-15h-18.398c-2.136 0-3.868-1.732-3.868-3.867z" fill="#c27e4e"/><path d="m303.735 65.398c.073-32.321-24.598-58.466-55.104-58.398-9.699.022-18.82 2.691-26.753 7.361-17.017 10.017-23.564 29.241-23.614 51.286-.073 32.321 19.861 67.415 50.366 67.346 16.148-.036 30.62-7.038 40.676-22.181 8.944-13.464 14.395-30.202 14.429-45.414z" fill="#cf9875"/><path d="m268.631 116.992c-30.506.069-55.439-39.025-55.366-71.346.026-11.498 3.192-22.22 8.619-31.277-17.017 10.017-28.569 29.233-28.619 51.277-.073 32.321 24.861 71.415 55.366 71.346 16.147-.036 30.618-11.039 40.675-26.182-6.377 3.89-13.353 6.166-20.675 6.182z" fill="#c27e4e"/></g></svg>